<svg
  width="64"
  height="64"
  viewBox="0 0 24 24"
  fill="none"
  xmlns="http://www.w3.org/2000/svg"
>
  <path
    d="M3 9C3 6.24 7.03 4 12 4C16.97 4 21 6.24 21 9H3Z"
    fill="#F4A261"
  />
  <path
    d="M21 11H3C2.45 11 2 11.45 2 12V13C2 13.55 2.45 14 3 14H21C21.55 14 22 13.55 22 13V12C22 11.45 21.55 11 21 11Z"
    fill="#E76F51"
  />
  <path
    d="M4 15C4 15 5.12 18 12 18C18.88 18 20 15 20 15H4Z"
    fill="#2A9D8F"
  />
  <path
    d="M21 19H3C2.45 19 2 19.45 2 20C2 20.55 2.45 21 3 21H21C21.55 21 22 20.55 22 20C22 19.45 21.55 19 21 19Z"
    fill="#E9C46A"
  />
</svg>
